<svg xmlns="http://www.w3.org/2000/svg" viewBox="0 0 6000 3810">
    <rect fill="#000000" width="100%" height="635" y="0" x="0"/>
    <rect fill="#FFFFFF" width="100%" height="635" y="635" x="0"/>
    <rect fill="#000000" width="100%" height="635" y="1270" x="0"/>
    <rect fill="#FFFFFF" width="100%" height="635" y="1905" x="0"/>
    <rect fill="#000000" width="100%" height="635" y="2540" x="0"/>
    <rect fill="#FFFFFF" width="100%" height="635" y="3175" x="0"/>


    <polygon points="2500,635 3000,0 3000,635" style="fill:#E30613;"/>
    <polygon points="2000,1270 2500,635 3000,635 3000,1270" style="fill:#F18815;"/>
    <polygon points="1500,1905 2000,1270 3000,1270 3000,1905" style="fill:#FFED00;"/>
    <polygon points="1000,2540 1500,1905 3000,1905 3000,2540" style="fill:#028137;"/>
    <polygon points="500,3175 1000,2540 3000,2540 2500,3175" style="fill:#2E57A4;"/>
    <polygon points="0,3810 500,3175 2500,3175 2000,3810" style="fill:#6E2381;"/>

    <polygon points="3000,762 3000,0 3600,762" style="fill:#3399FF;"/>
    <polygon points="3000,1524 3000,762 3600,762 4200,1524" style="fill:#FFAFC8;"/>
    <polygon points="3000,2286 3000,1524 4200,1524 4800,2286" style="fill:#FFFFFF;"/>
    <polygon points="3000,2540 3000,2286 4800,2286 5400,3048 3400,3048" style="fill:#FFAFC8;"/>
    <polygon points="4000,3810 3400,3048 5400,3048 6000,3810" style="fill:#3399FF;"/>

</svg>
